HIERARCHY
ROOT hip
{
  OFFSET 0 0 0
  CHANNELS 6 Xposition Yposition Zposition Zrotation Yrotation Xrotation
  JOINT abdomen
  {
    OFFSET 0 20.6881 -0.73152
    CHANNELS 3 Zrotation Xrotation Yrotation
    JOINT chest
    {
      OFFSET 0 11.7043 -0.48768
      CHANNELS 3 Zrotation Xrotation Yrotation
      JOINT neck
      {
        OFFSET 0 22.1894 -2.19456
        CHANNELS 3 Zrotation Xrotation Yrotation
        JOINT head
        {
          OFFSET -0.24384 7.07133 1.2192
          CHANNELS 3 Zrotation Xrotation Yrotation
          JOINT leftEye
          {
            OFFSET 4.14528 8.04674 8.04672
            CHANNELS 3 Zrotation Xrotation Yrotation
            End Site
            {
              OFFSET 1 0 0
            }
          }
          JOINT rightEye
          {
            OFFSET -3.6576 8.04674 8.04672
            CHANNELS 3 Zrotation Xrotation Yrotation
            End Site
            {
              OFFSET 1 0 0
            }
          }
        }
      }
      JOINT rCollar
      {
        OFFSET -2.68224 19.2634 -4.8768
        CHANNELS 3 Zrotation Xrotation Yrotation
        JOINT rShldr
        {
          OFFSET -8.77824 -1.95073 1.46304
          CHANNELS 3 Zrotation Xrotation Yrotation
          JOINT rForeArm
          {
            OFFSET -28.1742 -1.7115 0.48768
            CHANNELS 3 Zrotation Xrotation Yrotation
            JOINT rHand
            {
              OFFSET -22.5879 0.773209 7.07136
              CHANNELS 3 Zrotation Xrotation Yrotation
              JOINT rThumb1
              {
                OFFSET -1.2192 -0.487915 3.41376
                CHANNELS 3 Zrotation Xrotation Yrotation
                JOINT rThumb2
                {
                  OFFSET -3.37035 -0.52449 3.41376
                  CHANNELS 3 Zrotation Xrotation Yrotation
                  End Site
                  {
                    OFFSET -1.78271 -1.18214 1.43049
                  }
                }
              }
              JOINT rIndex1
              {
                OFFSET -7.75947 0.938293 5.60832
                CHANNELS 3 Zrotation Xrotation Yrotation
                JOINT rIndex2
                {
                  OFFSET -2.54057 -0.884171 1.56538
                  CHANNELS 3 Zrotation Xrotation Yrotation
                  End Site
                  {
                    OFFSET -1.62519 -0.234802 1.16502
                  }
                }
              }
              JOINT rMid1
              {
                OFFSET -8.24714 1.18213 3.41376
                CHANNELS 3 Zrotation Xrotation Yrotation
                JOINT rMid2
                {
                  OFFSET -3.10165 -0.590103 1.0647
                  CHANNELS 3 Zrotation Xrotation Yrotation
                  End Site
                  {
                    OFFSET -2.48547 -0.328903 0.83742
                  }
                }
              }
              JOINT rRing1
              {
                OFFSET -8.82822 0.546677 1.51678
                CHANNELS 3 Zrotation Xrotation Yrotation
                JOINT rRing2
                {
                  OFFSET -2.60934 -0.819778 -0.0198488
                  CHANNELS 3 Zrotation Xrotation Yrotation
                  End Site
                  {
                    OFFSET -2.33842 -0.294052 0.168128
                  }
                }
              }
              JOINT rPinky1
              {
                OFFSET -8.27202 -0.0477905 -0.4584
                CHANNELS 3 Zrotation Xrotation Yrotation
                JOINT rPinky2
                {
                  OFFSET -1.82734 -0.647385 -0.700984
                  CHANNELS 3 Zrotation Xrotation Yrotation
                  End Site
                  {
                    OFFSET -1.69225 -0.51767 -0.607171
                  }
                }
              }
            }
          }
        }
      }
      JOINT lCollar
      {
        OFFSET 2.68224 19.2634 -4.8768
        CHANNELS 3 Zrotation Xrotation Yrotation
        JOINT lShldr
        {
          OFFSET 8.77824 -1.95073 1.46304
          CHANNELS 3 Zrotation Xrotation Yrotation
          JOINT lForeArm
          {
            OFFSET 28.1742 -1.7115 0.48768
            CHANNELS 3 Zrotation Xrotation Yrotation
            JOINT lHand
            {
              OFFSET 22.5879 0.773209 7.07136
              CHANNELS 3 Zrotation Xrotation Yrotation
              JOINT lThumb1
              {
                OFFSET 1.2192 -0.487915 3.41376
                CHANNELS 3 Zrotation Xrotation Yrotation
                JOINT lThumb2
                {
                  OFFSET 3.37035 -0.52449 3.41376
                  CHANNELS 3 Zrotation Xrotation Yrotation
                  End Site
                  {
                    OFFSET 1.78271 -1.18214 1.43049
                  }
                }
              }
              JOINT lIndex1
              {
                OFFSET 7.75947 0.938293 5.60832
                CHANNELS 3 Zrotation Xrotation Yrotation
                JOINT lIndex2
                {
                  OFFSET 2.54057 -0.884171 1.56538
                  CHANNELS 3 Zrotation Xrotation Yrotation
                  End Site
                  {
                    OFFSET 1.62519 -0.234802 1.16502
                  }
                }
              }
              JOINT lMid1
              {
                OFFSET 8.24714 1.18213 3.41376
                CHANNELS 3 Zrotation Xrotation Yrotation
                JOINT lMid2
                {
                  OFFSET 3.10165 -0.590103 1.0647
                  CHANNELS 3 Zrotation Xrotation Yrotation
                  End Site
                  {
                    OFFSET 2.48547 -0.328903 0.83742
                  }
                }
              }
              JOINT lRing1
              {
                OFFSET 8.82822 0.546677 1.51678
                CHANNELS 3 Zrotation Xrotation Yrotation
                JOINT lRing2
                {
                  OFFSET 2.60934 -0.819778 -0.0198488
                  CHANNELS 3 Zrotation Xrotation Yrotation
                  End Site
                  {
                    OFFSET 2.33842 -0.294052 0.168128
                  }
                }
              }
              JOINT lPinky1
              {
                OFFSET 8.27202 -0.0477905 -0.4584
                CHANNELS 3 Zrotation Xrotation Yrotation
                JOINT lPinky2
                {
                  OFFSET 1.82734 -0.647385 -0.700984
                  CHANNELS 3 Zrotation Xrotation Yrotation
                  End Site
                  {
                    OFFSET 1.69225 -0.51767 -0.607171
                  }
                }
              }
            }
          }
        }
      }
    }
  }
  JOINT rButtock
  {
    OFFSET -8.77824 4.35084 1.2192
    CHANNELS 3 Zrotation Xrotation Yrotation
    JOINT rThigh
    {
      OFFSET 0 -1.70687 -2.19456
      CHANNELS 3 Zrotation Xrotation Yrotation
      JOINT rShin
      {
        OFFSET 0 -36.8199 0.73152
        CHANNELS 3 Zrotation Xrotation Yrotation
        JOINT rFoot
        {
          OFFSET 0.73152 -45.1104 -5.12064
          CHANNELS 3 Zrotation Xrotation Yrotation
          End Site
          {
            OFFSET -1.1221 -3.69964 12.103
          }
        }
      }
    }
  }
  JOINT lButtock
  {
    OFFSET 8.77824 4.35084 1.2192
    CHANNELS 3 Zrotation Xrotation Yrotation
    JOINT lThigh
    {
      OFFSET 0 -1.70687 -2.19456
      CHANNELS 3 Zrotation Xrotation Yrotation
      JOINT lShin
      {
        OFFSET 0 -36.8199 0.73152
        CHANNELS 3 Zrotation Xrotation Yrotation
        JOINT lFoot
        {
          OFFSET -0.73152 -45.1104 -5.12064
          CHANNELS 3 Zrotation Xrotation Yrotation
          End Site
          {
            OFFSET 1.1221 -3.69964 12.103
          }
        }
      }
    }
  }
}
MOTION
Frames:	4
Frame Time:	0.03333
-0.3028700053691864 83.27850341796875 2.571000099182129 -3.7394000217318535 11.840700209140778 -28.84370058774948 -5.102630071341991 43.51630121469498 1.0578100103884935 8.123759999871254 -6.781290248036385 0.039964799070730805 -4.922050014138222 15.756800472736359 -5.18951989710331 7.560030072927475 -19.93849977850914 -8.74094970524311 0.0 0.0 0.0 0.0 0.0 0.0 0.0 0.0 0.0 44.87839937210083 17.905599921941757 11.021900251507759 -26.632999777793884 -44.924200773239136 93.31610083580017 -0.42195200454443693 -18.164300322532654 -2.6426900178194046 1.2137491012254031e-09 7.019025360932574e-09 3.888089850079268e-09 2.0533974520731135e-09 1.201215127366595e-08 6.732534529874101e-09 1.2137491012254031e-09 7.019025360932574e-09 3.888089850079268e-09 7.7309102565050125 5.474880114197731 0.41731400415301323 1.2137491012254031e-09 7.019025360932574e-09 3.888089850079268e-09 2.905540131032467 0.9651830233633518 0.102901995414868 1.2137491012254031e-09 7.019025360932574e-09 3.888089850079268e-09 10.27859978377819 0.7318009994924068 0.025912300043273717 1.2137491012254031e-09 7.019025360932574e-09 3.888089850079268e-09 2.221670038998127 -0.733487019315362 -0.2089200052432716 0.0 0.0 0.0 -34.49369877576828 36.4984005689621 -46.65970265865326 26.12920045852661 -23.77620041370392 -57.32309818267822 0.6175249814987183 -21.7999005317688 3.2212498784065247 1.4407675053007551e-09 -4.7194248509185854e-08 -2.384012987022288e-09 2.5278978910137084e-09 -8.145548235916067e-08 -4.1029579733731225e-09 1.4407675053007551e-09 -4.7194248509185854e-08 -2.384012987022288e-09 -7.7309102565050125 5.474880114197731 -0.41731400415301323 1.4407675053007551e-09 -4.7194248509185854e-08 -2.384012987022288e-09 -2.905540131032467 0.9651830233633518 -0.102901995414868 1.4407675053007551e-09 -4.7194248509185854e-08 -2.384012987022288e-09 -10.27859978377819 0.7318009994924068 -0.025912300043273717 1.4407675053007551e-09 -4.7194248509185854e-08 -2.384012987022288e-09 -2.221670038998127 -0.733487019315362 0.2089200052432716 0.0 0.0 0.0 -171.94200038909912 -74.86559808254242 -147.77899861335754 -0.20526899490505457 39.45439875125885 1.0706199891865253 -2.928990013897419 -1.8226500414311886 -15.166100263595581 0.0 0.0 0.0 3.5632499679923058 6.458920240402222 7.498710080981255 0.5466380110010505 49.38960134983063 -0.8562539890408516 12.263999730348587 -15.96220001578331 21.72300025820732
-0.19719000905752182 83.11029815673828 5.759000062942505 -4.1819001361727715 11.760000586509705 -30.07979929447174 -5.347829908132553 42.64840006828308 1.509619988501072 7.977979928255081 -6.937929913401604 0.13916999800130725 -5.15675000846386 15.668999701738358 -5.338140092790127 7.648970112204552 -18.051300197839737 -9.104039669036865 0.0 0.0 0.0 0.0 0.0 0.0 0.0 0.0 0.0 44.494999051094055 16.924699991941452 11.483400464057922 -26.49490088224411 -45.24249851703644 93.96569967269897 -0.4351789830252528 -18.41389998793602 -2.6819399558007717 1.312230324401753e-09 7.663629730814137e-09 3.5299763112561777e-09 2.2254198484006338e-09 1.3132535059412476e-08 6.108393790782429e-09 1.312230324401753e-09 7.663629730814137e-09 3.5299763112561777e-09 7.7309102565050125 5.474880114197731 0.41731400415301323 1.312230324401753e-09 7.663629730814137e-09 3.5299763112561777e-09 2.905540131032467 0.9651830233633518 0.102901995414868 1.312230324401753e-09 7.663629730814137e-09 3.5299763112561777e-09 10.27859978377819 0.7318009994924068 0.025912300043273717 1.312230324401753e-09 7.663629730814137e-09 3.5299763112561777e-09 2.221670038998127 -0.733487019315362 -0.2089200052432716 0.0 0.0 0.0 -35.33859997987747 38.11619907617569 -43.61580044031143 26.730801165103912 -25.471300184726715 -59.99630033969879 0.7166780345141888 -23.29099953174591 3.4691399708390236 1.028936935654201e-09 -2.9503439691325184e-08 -1.2278178473934531e-09 1.7982415556616616e-09 -5.083677478978643e-08 -2.0975221559638157e-09 1.028936935654201e-09 -2.9503439691325184e-08 -1.2278178473934531e-09 -7.7309102565050125 5.474880114197731 -0.41731400415301323 1.028936935654201e-09 -2.9503439691325184e-08 -1.2278178473934531e-09 -2.905540131032467 0.9651830233633518 -0.102901995414868 1.028936935654201e-09 -2.9503439691325184e-08 -1.2278178473934531e-09 -10.27859978377819 0.7318009994924068 -0.025912300043273717 1.028936935654201e-09 -2.9503439691325184e-08 -1.2278178473934531e-09 -2.221670038998127 -0.733487019315362 0.2089200052432716 0.0 0.0 0.0 -176.17499828338623 -69.90669786930084 -155.04100441932678 -0.418106010183692 46.45800054073334 1.308850022032857 -2.741079982370138 -1.8484200350940228 -14.453500360250473 0.0 0.0 0.0 3.9480001106858253 8.475630283355713 7.183889821171761 0.5408039968460798 49.47020173072815 -0.9093870408833027 13.199099600315094 -16.263999491930008 23.392199277877808
-0.19745000905822963 82.81849670410156 9.259999990463257 -4.671300016343594 14.408299773931503 -31.524300277233124 -3.690429925918579 42.59880065917969 -1.1055700108408928 7.476770281791687 -7.502840012311935 -0.24328499101102352 -5.363000147044659 15.336900651454926 -5.5187999457120895 8.070809841156006 -15.771500319242477 -9.48785975575447 0.0 0.0 0.0 0.0 0.0 0.0 0.0 0.0 0.0 45.34879982471466 16.3019996881485 11.728999614715576 -26.240600645542145 -45.76710104942322 95.09179830551147 -0.3994040144607425 -17.669499814510345 -2.5661300495266914 -5.051958851254312e-10 -2.916067387559451e-10 -3.6834535421803594e-10 -8.780176585787558e-10 -5.269384928396903e-10 -6.343725544866174e-10 -5.051958851254312e-10 -2.916067387559451e-10 -3.6834535421803594e-10 7.7309102565050125 5.474880114197731 0.41731400415301323 -5.051958851254312e-10 -2.916067387559451e-10 -3.6834535421803594e-10 2.905540131032467 0.9651830233633518 0.102901995414868 -5.051958851254312e-10 -2.916067387559451e-10 -3.6834535421803594e-10 10.27859978377819 0.7318009994924068 0.025912300043273717 -5.051958851254312e-10 -2.916067387559451e-10 -3.6834535421803594e-10 2.221670038998127 -0.733487019315362 -0.2089200052432716 0.0 0.0 0.0 -36.04060113430023 40.061999559402466 -39.942799508571625 27.273699045181274 -27.299399971961975 -62.918599247932434 0.7593010179698467 -23.934898674488068 3.576900064945221 2.1231016944511794e-10 -1.0016947271651588e-08 -4.501998773775995e-10 3.709033080667723e-10 -1.7230377125088125e-08 -7.673861546209082e-10 2.1231016944511794e-10 -1.0016947271651588e-08 -4.501998773775995e-10 -7.7309102565050125 5.474880114197731 -0.41731400415301323 2.1231016944511794e-10 -1.0016947271651588e-08 -4.501998773775995e-10 -2.905540131032467 0.9651830233633518 -0.102901995414868 2.1231016944511794e-10 -1.0016947271651588e-08 -4.501998773775995e-10 -10.27859978377819 0.7318009994924068 -0.025912300043273717 2.1231016944511794e-10 -1.0016947271651588e-08 -4.501998773775995e-10 -2.221670038998127 -0.733487019315362 0.2089200052432716 0.0 0.0 0.0 -173.10499548912048 -62.06009924411774 -156.38399720191956 -1.4545399881899357 65.09690165519714 2.1152299270033836 -2.8562699630856514 -3.638649880886078 -12.283299565315247 0.0 0.0 0.0 4.773159921169281 11.449100375175476 4.771930128335953 0.5056820204481483 49.487802386283875 -1.2088400032371283 14.565399438142776 -16.305100321769714 25.765101313591003
-0.5779400140745565 82.42949676513672 12.523000001907349 -6.6394999623298645 18.526999354362488 -32.99589961767197 -0.9814650379121304 42.33819991350174 -4.168109893798828 7.314689755439758 -8.023869842290878 -0.5894790077582002 -5.553769916296005 15.160800218582153 -5.898119956254959 8.756289929151535 -15.027400553226471 -10.155299976468086 0.0 0.0 0.0 0.0 0.0 0.0 -6.394884621840902e-13 0.0 0.0 46.69470012187958 15.402000546455383 11.160500049591064 -25.784300565719604 -46.70870125293732 97.01980233192444 -0.34640400437638164 -16.536600440740585 -2.3911799490451813 -1.3128698128639371e-09 -3.4276581573067233e-09 -1.5756995708215982e-09 -2.2599522253585747e-09 -5.913989298278466e-09 -2.731894710450433e-09 -1.3128698128639371e-09 -3.4276581573067233e-09 -1.5756995708215982e-09 7.7309102565050125 5.474880114197731 0.41731400415301323 -1.3128698128639371e-09 -3.4276581573067233e-09 -1.5756995708215982e-09 2.905540131032467 0.9651830233633518 0.102901995414868 -1.3128698128639371e-09 -3.4276581573067233e-09 -1.5756995708215982e-09 10.27859978377819 0.7318009994924068 0.025912300043273717 -1.3128698128639371e-09 -3.4276581573067233e-09 -1.5756995708215982e-09 2.221670038998127 -0.733487019315362 -0.2089200052432716 -6.394884621840902e-13 0.0 0.0 -37.36720025539398 42.1138009428978 -36.404099464416504 27.695800960063934 -29.026798903942108 -65.70739924907684 0.7237739861011505 -23.44209909439087 3.493250012397766 6.394884621840902e-11 -9.208633855450898e-11 -1.2380496627883986e-09 1.2533973858808167e-10 -4.757794158649631e-10 -2.1384494175435975e-09 6.394884621840902e-11 -9.208633855450898e-11 -1.2380496627883986e-09 -7.7309102565050125 5.474880114197731 -0.41731400415301323 6.394884621840902e-11 -9.208633855450898e-11 -1.2380496627883986e-09 -2.905540131032467 0.9651830233633518 -0.102901995414868 6.394884621840902e-11 -9.208633855450898e-11 -1.2380496627883986e-09 -10.27859978377819 0.7318009994924068 -0.025912300043273717 6.394884621840902e-11 -9.208633855450898e-11 -1.2380496627883986e-09 -2.221670038998127 -0.733487019315362 0.2089200052432716 0.0 0.0 0.0 -167.9919970035553 -53.818899393081665 -155.59499859809875 -9.4811200350523 84.09409761428833 9.992349743843079 -2.53067996352911 -4.58595983684063 -10.319300293922424 0.0 0.0 0.0 6.964289993047714 13.084699362516403 1.1670699622482061 0.4741689981892705 50.21419823169708 -1.5456700511276722 15.893700420856476 -16.55279964208603 28.15629869699478
